<mxfile host="Electron" agent="Mozilla/5.0 (X11; Linux x86_64) AppleWebKit/537.36 (KHTML, like Gecko) draw.io/27.0.5 Chrome/134.0.6998.205 Electron/35.3.0 Safari/537.36" version="27.0.5">
  <diagram name="Page-1" id="EF95RXOkAe6jpXl8hsVO">
    <mxGraphModel dx="1436" dy="552" grid="1" gridSize="10" guides="1" tooltips="1" connect="1" arrows="1" fold="1" page="1" pageScale="1" pageWidth="850" pageHeight="1100" math="0" shadow="0">
      <root>
        <mxCell id="0" />
        <mxCell id="1" parent="0" />
        <mxCell id="Xn5FnCG-qSh6JUQlaOpy-128" value="0,&amp;nbsp;&lt;span style=&quot;background-color: transparent; color: light-dark(rgb(0, 0, 0), rgb(255, 255, 255));&quot;&gt;zero&lt;/span&gt;" style="rounded=0;whiteSpace=wrap;html=1;" parent="1" vertex="1">
          <mxGeometry x="290.34" y="760" width="40" height="40" as="geometry" />
        </mxCell>
        <mxCell id="Xn5FnCG-qSh6JUQlaOpy-129" value="1, ra" style="rounded=0;whiteSpace=wrap;html=1;fillColor=#f8cecc;strokeColor=#b85450;" parent="1" vertex="1">
          <mxGeometry x="290.34" y="800" width="40" height="40" as="geometry" />
        </mxCell>
        <mxCell id="Xn5FnCG-qSh6JUQlaOpy-130" value="2, sp" style="rounded=0;whiteSpace=wrap;html=1;fillColor=#f8cecc;strokeColor=#b85450;" parent="1" vertex="1">
          <mxGeometry x="290.34" y="840" width="40" height="40" as="geometry" />
        </mxCell>
        <mxCell id="Xn5FnCG-qSh6JUQlaOpy-131" value="" style="endArrow=none;html=1;rounded=0;" parent="1" edge="1">
          <mxGeometry width="50" height="50" relative="1" as="geometry">
            <mxPoint x="300.34" y="760" as="sourcePoint" />
            <mxPoint x="320.34" y="760" as="targetPoint" />
            <Array as="points">
              <mxPoint x="310.34" y="770" />
            </Array>
          </mxGeometry>
        </mxCell>
        <mxCell id="Xn5FnCG-qSh6JUQlaOpy-133" value="" style="endArrow=none;html=1;rounded=0;" parent="1" edge="1">
          <mxGeometry width="50" height="50" relative="1" as="geometry">
            <mxPoint x="300.34" y="800" as="sourcePoint" />
            <mxPoint x="320.34" y="800" as="targetPoint" />
            <Array as="points">
              <mxPoint x="310.34" y="810" />
            </Array>
          </mxGeometry>
        </mxCell>
        <mxCell id="Xn5FnCG-qSh6JUQlaOpy-134" value="" style="endArrow=none;html=1;rounded=0;" parent="1" edge="1">
          <mxGeometry width="50" height="50" relative="1" as="geometry">
            <mxPoint x="300.34" y="840" as="sourcePoint" />
            <mxPoint x="320.34" y="840" as="targetPoint" />
            <Array as="points">
              <mxPoint x="310.34" y="850" />
            </Array>
          </mxGeometry>
        </mxCell>
        <mxCell id="Xn5FnCG-qSh6JUQlaOpy-135" value="31, t6" style="rounded=0;whiteSpace=wrap;html=1;fillColor=#f8cecc;strokeColor=#b85450;" parent="1" vertex="1">
          <mxGeometry x="290.34" y="920" width="40" height="40" as="geometry" />
        </mxCell>
        <mxCell id="Xn5FnCG-qSh6JUQlaOpy-136" value="" style="endArrow=none;html=1;rounded=0;" parent="1" edge="1">
          <mxGeometry width="50" height="50" relative="1" as="geometry">
            <mxPoint x="300.34" y="920" as="sourcePoint" />
            <mxPoint x="320.34" y="920" as="targetPoint" />
            <Array as="points">
              <mxPoint x="310.34" y="930" />
            </Array>
          </mxGeometry>
        </mxCell>
        <mxCell id="Xn5FnCG-qSh6JUQlaOpy-137" value="" style="endArrow=none;html=1;rounded=0;exitX=0;exitY=0.25;exitDx=0;exitDy=0;" parent="1" source="Xn5FnCG-qSh6JUQlaOpy-128" edge="1">
          <mxGeometry width="50" height="50" relative="1" as="geometry">
            <mxPoint x="210.34" y="770" as="sourcePoint" />
            <mxPoint x="250.34" y="770" as="targetPoint" />
          </mxGeometry>
        </mxCell>
        <mxCell id="Xn5FnCG-qSh6JUQlaOpy-138" value="" style="endArrow=none;html=1;rounded=0;exitX=0;exitY=0.25;exitDx=0;exitDy=0;" parent="1" source="Xn5FnCG-qSh6JUQlaOpy-129" edge="1">
          <mxGeometry width="50" height="50" relative="1" as="geometry">
            <mxPoint x="210.34" y="809.71" as="sourcePoint" />
            <mxPoint x="250.34" y="809.71" as="targetPoint" />
          </mxGeometry>
        </mxCell>
        <mxCell id="Xn5FnCG-qSh6JUQlaOpy-139" value="" style="endArrow=none;html=1;rounded=0;exitX=0;exitY=0.25;exitDx=0;exitDy=0;" parent="1" source="Xn5FnCG-qSh6JUQlaOpy-130" edge="1">
          <mxGeometry width="50" height="50" relative="1" as="geometry">
            <mxPoint x="210.34" y="849.71" as="sourcePoint" />
            <mxPoint x="250.34" y="849.71" as="targetPoint" />
          </mxGeometry>
        </mxCell>
        <mxCell id="Xn5FnCG-qSh6JUQlaOpy-140" value="" style="endArrow=none;html=1;rounded=0;exitX=0;exitY=0.25;exitDx=0;exitDy=0;" parent="1" source="Xn5FnCG-qSh6JUQlaOpy-135" edge="1">
          <mxGeometry width="50" height="50" relative="1" as="geometry">
            <mxPoint x="210.34" y="929.71" as="sourcePoint" />
            <mxPoint x="250.34" y="929.71" as="targetPoint" />
          </mxGeometry>
        </mxCell>
        <mxCell id="Xn5FnCG-qSh6JUQlaOpy-141" value="" style="shape=link;html=1;rounded=0;exitX=1;exitY=0.5;exitDx=0;exitDy=0;" parent="1" edge="1">
          <mxGeometry width="100" relative="1" as="geometry">
            <mxPoint x="140" y="770.0000000000002" as="sourcePoint" />
            <mxPoint x="250" y="940" as="targetPoint" />
            <Array as="points">
              <mxPoint x="250" y="770" />
            </Array>
          </mxGeometry>
        </mxCell>
        <mxCell id="Xn5FnCG-qSh6JUQlaOpy-164" value="&amp;nbsp;R&amp;nbsp;" style="edgeLabel;html=1;align=center;verticalAlign=middle;resizable=0;points=[];" parent="Xn5FnCG-qSh6JUQlaOpy-141" vertex="1" connectable="0">
          <mxGeometry x="-0.6783" y="2" relative="1" as="geometry">
            <mxPoint x="-5" y="2" as="offset" />
          </mxGeometry>
        </mxCell>
        <mxCell id="Xn5FnCG-qSh6JUQlaOpy-144" value="" style="endArrow=none;html=1;rounded=0;exitX=0;exitY=0.75;exitDx=0;exitDy=0;" parent="1" source="Xn5FnCG-qSh6JUQlaOpy-128" edge="1">
          <mxGeometry width="50" height="50" relative="1" as="geometry">
            <mxPoint x="270.34" y="790" as="sourcePoint" />
            <mxPoint x="230.34" y="790" as="targetPoint" />
          </mxGeometry>
        </mxCell>
        <mxCell id="Xn5FnCG-qSh6JUQlaOpy-145" value="" style="endArrow=none;html=1;rounded=0;exitX=0;exitY=0.75;exitDx=0;exitDy=0;" parent="1" source="Xn5FnCG-qSh6JUQlaOpy-129" edge="1">
          <mxGeometry width="50" height="50" relative="1" as="geometry">
            <mxPoint x="285.34" y="830" as="sourcePoint" />
            <mxPoint x="230.34" y="829.71" as="targetPoint" />
          </mxGeometry>
        </mxCell>
        <mxCell id="Xn5FnCG-qSh6JUQlaOpy-146" value="" style="endArrow=none;html=1;rounded=0;exitX=0;exitY=0.75;exitDx=0;exitDy=0;" parent="1" source="Xn5FnCG-qSh6JUQlaOpy-130" edge="1">
          <mxGeometry width="50" height="50" relative="1" as="geometry">
            <mxPoint x="270.34" y="870" as="sourcePoint" />
            <mxPoint x="230.34" y="869.71" as="targetPoint" />
          </mxGeometry>
        </mxCell>
        <mxCell id="Xn5FnCG-qSh6JUQlaOpy-147" value="" style="endArrow=none;html=1;rounded=0;exitX=0;exitY=0.75;exitDx=0;exitDy=0;" parent="1" source="Xn5FnCG-qSh6JUQlaOpy-135" edge="1">
          <mxGeometry width="50" height="50" relative="1" as="geometry">
            <mxPoint x="285.34" y="950" as="sourcePoint" />
            <mxPoint x="230.34" y="949.71" as="targetPoint" />
          </mxGeometry>
        </mxCell>
        <mxCell id="Xn5FnCG-qSh6JUQlaOpy-148" value="" style="shape=link;html=1;rounded=0;exitX=1;exitY=0.5;exitDx=0;exitDy=0;" parent="1" source="Xn5FnCG-qSh6JUQlaOpy-158" edge="1">
          <mxGeometry width="100" relative="1" as="geometry">
            <mxPoint x="170" y="810" as="sourcePoint" />
            <mxPoint x="230" y="960" as="targetPoint" />
            <Array as="points">
              <mxPoint x="230" y="810" />
            </Array>
          </mxGeometry>
        </mxCell>
        <mxCell id="Xn5FnCG-qSh6JUQlaOpy-163" value="&amp;nbsp;R * 32&amp;nbsp;" style="edgeLabel;html=1;align=center;verticalAlign=middle;resizable=0;points=[];" parent="Xn5FnCG-qSh6JUQlaOpy-148" vertex="1" connectable="0">
          <mxGeometry x="-0.6603" y="1" relative="1" as="geometry">
            <mxPoint y="1" as="offset" />
          </mxGeometry>
        </mxCell>
        <mxCell id="Xn5FnCG-qSh6JUQlaOpy-149" value="" style="endArrow=none;dashed=1;html=1;dashPattern=1 3;strokeWidth=2;rounded=0;" parent="1" edge="1">
          <mxGeometry width="50" height="50" relative="1" as="geometry">
            <mxPoint x="310.34" y="910" as="sourcePoint" />
            <mxPoint x="310.34" y="890" as="targetPoint" />
          </mxGeometry>
        </mxCell>
        <mxCell id="Xn5FnCG-qSh6JUQlaOpy-150" value="" style="rounded=0;whiteSpace=wrap;html=1;fillColor=#dae8fc;strokeColor=#6c8ebf;" parent="1" vertex="1">
          <mxGeometry x="10" y="740" width="120" height="180" as="geometry" />
        </mxCell>
        <mxCell id="Xn5FnCG-qSh6JUQlaOpy-152" value="o_w_ena" style="rounded=0;whiteSpace=wrap;html=1;" parent="1" vertex="1">
          <mxGeometry x="80" y="760" width="60" height="20" as="geometry" />
        </mxCell>
        <mxCell id="Xn5FnCG-qSh6JUQlaOpy-158" value="o_w_data" style="rounded=0;whiteSpace=wrap;html=1;" parent="1" vertex="1">
          <mxGeometry x="80" y="800" width="60" height="20" as="geometry" />
        </mxCell>
        <mxCell id="Xn5FnCG-qSh6JUQlaOpy-159" value="i_w_ena" style="rounded=0;whiteSpace=wrap;html=1;" parent="1" vertex="1">
          <mxGeometry y="800" width="70" height="20" as="geometry" />
        </mxCell>
        <mxCell id="Xn5FnCG-qSh6JUQlaOpy-160" value="i_w_data" style="rounded=0;whiteSpace=wrap;html=1;" parent="1" vertex="1">
          <mxGeometry y="840" width="70" height="20" as="geometry" />
        </mxCell>
        <mxCell id="Xn5FnCG-qSh6JUQlaOpy-161" value="i_pop_data" style="rounded=0;whiteSpace=wrap;html=1;" parent="1" vertex="1">
          <mxGeometry y="880" width="70" height="20" as="geometry" />
        </mxCell>
        <mxCell id="Xn5FnCG-qSh6JUQlaOpy-165" value="" style="shape=link;html=1;rounded=0;" parent="1" edge="1">
          <mxGeometry width="100" relative="1" as="geometry">
            <mxPoint x="-70" y="890" as="sourcePoint" />
            <mxPoint y="889.71" as="targetPoint" />
          </mxGeometry>
        </mxCell>
        <mxCell id="Xn5FnCG-qSh6JUQlaOpy-166" value="&amp;nbsp;S * 32&amp;nbsp;" style="edgeLabel;html=1;align=center;verticalAlign=middle;resizable=0;points=[];" parent="Xn5FnCG-qSh6JUQlaOpy-165" vertex="1" connectable="0">
          <mxGeometry x="0.1425" y="-3" relative="1" as="geometry">
            <mxPoint y="-3" as="offset" />
          </mxGeometry>
        </mxCell>
        <mxCell id="Xn5FnCG-qSh6JUQlaOpy-167" value="" style="endArrow=none;html=1;rounded=0;entryX=0;entryY=0.5;entryDx=0;entryDy=0;" parent="1" edge="1">
          <mxGeometry width="50" height="50" relative="1" as="geometry">
            <mxPoint x="-70" y="849.76" as="sourcePoint" />
            <mxPoint y="849.76" as="targetPoint" />
          </mxGeometry>
        </mxCell>
        <mxCell id="Xn5FnCG-qSh6JUQlaOpy-177" value="&amp;nbsp;32&amp;nbsp;" style="edgeLabel;html=1;align=center;verticalAlign=middle;resizable=0;points=[];" parent="Xn5FnCG-qSh6JUQlaOpy-167" vertex="1" connectable="0">
          <mxGeometry x="0.2136" relative="1" as="geometry">
            <mxPoint as="offset" />
          </mxGeometry>
        </mxCell>
        <mxCell id="Xn5FnCG-qSh6JUQlaOpy-179" value="i_command" style="rounded=0;whiteSpace=wrap;html=1;" parent="1" vertex="1">
          <mxGeometry y="760" width="70" height="20" as="geometry" />
        </mxCell>
        <mxCell id="Xn5FnCG-qSh6JUQlaOpy-180" value="" style="shape=link;html=1;rounded=0;" parent="1" edge="1">
          <mxGeometry width="100" relative="1" as="geometry">
            <mxPoint x="230" y="780" as="sourcePoint" />
            <mxPoint x="230" y="840" as="targetPoint" />
          </mxGeometry>
        </mxCell>
        <mxCell id="Xn5FnCG-qSh6JUQlaOpy-181" value="" style="shape=link;html=1;rounded=0;" parent="1" edge="1">
          <mxGeometry width="100" relative="1" as="geometry">
            <mxPoint x="250" y="750" as="sourcePoint" />
            <mxPoint x="250" y="780" as="targetPoint" />
          </mxGeometry>
        </mxCell>
        <mxCell id="Xn5FnCG-qSh6JUQlaOpy-182" value="" style="endArrow=none;html=1;rounded=0;entryX=0;entryY=0.5;entryDx=0;entryDy=0;" parent="1" edge="1">
          <mxGeometry width="50" height="50" relative="1" as="geometry">
            <mxPoint x="-70" y="809.76" as="sourcePoint" />
            <mxPoint y="809.76" as="targetPoint" />
          </mxGeometry>
        </mxCell>
        <mxCell id="Xn5FnCG-qSh6JUQlaOpy-183" value="1" style="edgeLabel;html=1;align=center;verticalAlign=middle;resizable=0;points=[];" parent="Xn5FnCG-qSh6JUQlaOpy-182" vertex="1" connectable="0">
          <mxGeometry x="0.2136" relative="1" as="geometry">
            <mxPoint as="offset" />
          </mxGeometry>
        </mxCell>
        <mxCell id="Xn5FnCG-qSh6JUQlaOpy-184" value="" style="endArrow=none;html=1;rounded=0;entryX=0;entryY=0.5;entryDx=0;entryDy=0;" parent="1" edge="1">
          <mxGeometry width="50" height="50" relative="1" as="geometry">
            <mxPoint x="-70" y="769.76" as="sourcePoint" />
            <mxPoint y="769.76" as="targetPoint" />
          </mxGeometry>
        </mxCell>
        <mxCell id="Xn5FnCG-qSh6JUQlaOpy-185" value="&amp;nbsp;2&amp;nbsp;" style="edgeLabel;html=1;align=center;verticalAlign=middle;resizable=0;points=[];" parent="Xn5FnCG-qSh6JUQlaOpy-184" vertex="1" connectable="0">
          <mxGeometry x="0.2136" relative="1" as="geometry">
            <mxPoint as="offset" />
          </mxGeometry>
        </mxCell>
        <mxCell id="Xn5FnCG-qSh6JUQlaOpy-186" value="0, zero" style="rounded=0;whiteSpace=wrap;html=1;" parent="1" vertex="1">
          <mxGeometry x="740.3399999999999" y="760" width="40" height="40" as="geometry" />
        </mxCell>
        <mxCell id="Xn5FnCG-qSh6JUQlaOpy-187" value="1, ra" style="rounded=0;whiteSpace=wrap;html=1;" parent="1" vertex="1">
          <mxGeometry x="740.3399999999999" y="800" width="40" height="40" as="geometry" />
        </mxCell>
        <mxCell id="Xn5FnCG-qSh6JUQlaOpy-188" value="2, sp" style="rounded=0;whiteSpace=wrap;html=1;" parent="1" vertex="1">
          <mxGeometry x="740.3399999999999" y="840" width="40" height="40" as="geometry" />
        </mxCell>
        <mxCell id="Xn5FnCG-qSh6JUQlaOpy-189" value="" style="endArrow=none;html=1;rounded=0;" parent="1" edge="1">
          <mxGeometry width="50" height="50" relative="1" as="geometry">
            <mxPoint x="750.3399999999999" y="760" as="sourcePoint" />
            <mxPoint x="770.3399999999999" y="760" as="targetPoint" />
            <Array as="points">
              <mxPoint x="760.3399999999999" y="770" />
            </Array>
          </mxGeometry>
        </mxCell>
        <mxCell id="Xn5FnCG-qSh6JUQlaOpy-190" value="" style="endArrow=none;html=1;rounded=0;" parent="1" edge="1">
          <mxGeometry width="50" height="50" relative="1" as="geometry">
            <mxPoint x="750.3399999999999" y="800" as="sourcePoint" />
            <mxPoint x="770.3399999999999" y="800" as="targetPoint" />
            <Array as="points">
              <mxPoint x="760.3399999999999" y="810" />
            </Array>
          </mxGeometry>
        </mxCell>
        <mxCell id="Xn5FnCG-qSh6JUQlaOpy-191" value="" style="endArrow=none;html=1;rounded=0;" parent="1" edge="1">
          <mxGeometry width="50" height="50" relative="1" as="geometry">
            <mxPoint x="750.3399999999999" y="840" as="sourcePoint" />
            <mxPoint x="770.3399999999999" y="840" as="targetPoint" />
            <Array as="points">
              <mxPoint x="760.3399999999999" y="850" />
            </Array>
          </mxGeometry>
        </mxCell>
        <mxCell id="Xn5FnCG-qSh6JUQlaOpy-192" value="31,t6" style="rounded=0;whiteSpace=wrap;html=1;fillColor=#f8cecc;strokeColor=#b85450;" parent="1" vertex="1">
          <mxGeometry x="740.3399999999999" y="920" width="40" height="40" as="geometry" />
        </mxCell>
        <mxCell id="Xn5FnCG-qSh6JUQlaOpy-193" value="" style="endArrow=none;html=1;rounded=0;" parent="1" edge="1">
          <mxGeometry width="50" height="50" relative="1" as="geometry">
            <mxPoint x="750.3399999999999" y="920" as="sourcePoint" />
            <mxPoint x="770.3399999999999" y="920" as="targetPoint" />
            <Array as="points">
              <mxPoint x="760.3399999999999" y="930" />
            </Array>
          </mxGeometry>
        </mxCell>
        <mxCell id="Xn5FnCG-qSh6JUQlaOpy-194" value="" style="endArrow=none;html=1;rounded=0;exitX=0;exitY=0.25;exitDx=0;exitDy=0;" parent="1" source="Xn5FnCG-qSh6JUQlaOpy-186" edge="1">
          <mxGeometry width="50" height="50" relative="1" as="geometry">
            <mxPoint x="660.34" y="770" as="sourcePoint" />
            <mxPoint x="700.34" y="770" as="targetPoint" />
          </mxGeometry>
        </mxCell>
        <mxCell id="Xn5FnCG-qSh6JUQlaOpy-195" value="" style="endArrow=none;html=1;rounded=0;exitX=0;exitY=0.25;exitDx=0;exitDy=0;" parent="1" source="Xn5FnCG-qSh6JUQlaOpy-187" edge="1">
          <mxGeometry width="50" height="50" relative="1" as="geometry">
            <mxPoint x="660.34" y="809.71" as="sourcePoint" />
            <mxPoint x="700.34" y="809.71" as="targetPoint" />
          </mxGeometry>
        </mxCell>
        <mxCell id="Xn5FnCG-qSh6JUQlaOpy-196" value="" style="endArrow=none;html=1;rounded=0;exitX=0;exitY=0.25;exitDx=0;exitDy=0;" parent="1" source="Xn5FnCG-qSh6JUQlaOpy-188" edge="1">
          <mxGeometry width="50" height="50" relative="1" as="geometry">
            <mxPoint x="660.34" y="849.71" as="sourcePoint" />
            <mxPoint x="700.34" y="849.71" as="targetPoint" />
          </mxGeometry>
        </mxCell>
        <mxCell id="Xn5FnCG-qSh6JUQlaOpy-197" value="" style="endArrow=none;html=1;rounded=0;exitX=0;exitY=0.25;exitDx=0;exitDy=0;" parent="1" source="Xn5FnCG-qSh6JUQlaOpy-192" edge="1">
          <mxGeometry width="50" height="50" relative="1" as="geometry">
            <mxPoint x="660.34" y="929.71" as="sourcePoint" />
            <mxPoint x="700.34" y="929.71" as="targetPoint" />
          </mxGeometry>
        </mxCell>
        <mxCell id="Xn5FnCG-qSh6JUQlaOpy-198" value="" style="shape=link;html=1;rounded=0;exitX=1;exitY=0.5;exitDx=0;exitDy=0;" parent="1" edge="1">
          <mxGeometry width="100" relative="1" as="geometry">
            <mxPoint x="590" y="770.0000000000002" as="sourcePoint" />
            <mxPoint x="700" y="940" as="targetPoint" />
            <Array as="points">
              <mxPoint x="700" y="770" />
            </Array>
          </mxGeometry>
        </mxCell>
        <mxCell id="Xn5FnCG-qSh6JUQlaOpy-199" value="&amp;nbsp;S&amp;nbsp;" style="edgeLabel;html=1;align=center;verticalAlign=middle;resizable=0;points=[];" parent="Xn5FnCG-qSh6JUQlaOpy-198" vertex="1" connectable="0">
          <mxGeometry x="-0.6783" y="2" relative="1" as="geometry">
            <mxPoint x="-5" y="2" as="offset" />
          </mxGeometry>
        </mxCell>
        <mxCell id="Xn5FnCG-qSh6JUQlaOpy-200" value="" style="endArrow=none;html=1;rounded=0;exitX=0;exitY=0.75;exitDx=0;exitDy=0;" parent="1" source="Xn5FnCG-qSh6JUQlaOpy-186" edge="1">
          <mxGeometry width="50" height="50" relative="1" as="geometry">
            <mxPoint x="720.3399999999999" y="790" as="sourcePoint" />
            <mxPoint x="680.34" y="790" as="targetPoint" />
          </mxGeometry>
        </mxCell>
        <mxCell id="Xn5FnCG-qSh6JUQlaOpy-201" value="" style="endArrow=none;html=1;rounded=0;exitX=0;exitY=0.75;exitDx=0;exitDy=0;" parent="1" source="Xn5FnCG-qSh6JUQlaOpy-187" edge="1">
          <mxGeometry width="50" height="50" relative="1" as="geometry">
            <mxPoint x="735.3399999999999" y="830" as="sourcePoint" />
            <mxPoint x="680.34" y="829.71" as="targetPoint" />
          </mxGeometry>
        </mxCell>
        <mxCell id="Xn5FnCG-qSh6JUQlaOpy-202" value="" style="endArrow=none;html=1;rounded=0;exitX=0;exitY=0.75;exitDx=0;exitDy=0;" parent="1" source="Xn5FnCG-qSh6JUQlaOpy-188" edge="1">
          <mxGeometry width="50" height="50" relative="1" as="geometry">
            <mxPoint x="720.3399999999999" y="870" as="sourcePoint" />
            <mxPoint x="680.34" y="869.71" as="targetPoint" />
          </mxGeometry>
        </mxCell>
        <mxCell id="Xn5FnCG-qSh6JUQlaOpy-203" value="" style="endArrow=none;html=1;rounded=0;exitX=0;exitY=0.75;exitDx=0;exitDy=0;" parent="1" source="Xn5FnCG-qSh6JUQlaOpy-192" edge="1">
          <mxGeometry width="50" height="50" relative="1" as="geometry">
            <mxPoint x="735.3399999999999" y="950" as="sourcePoint" />
            <mxPoint x="680.34" y="949.71" as="targetPoint" />
          </mxGeometry>
        </mxCell>
        <mxCell id="Xn5FnCG-qSh6JUQlaOpy-204" value="" style="shape=link;html=1;rounded=0;exitX=1;exitY=0.5;exitDx=0;exitDy=0;" parent="1" source="Xn5FnCG-qSh6JUQlaOpy-209" edge="1">
          <mxGeometry width="100" relative="1" as="geometry">
            <mxPoint x="620" y="810" as="sourcePoint" />
            <mxPoint x="680" y="960" as="targetPoint" />
            <Array as="points">
              <mxPoint x="680" y="810" />
            </Array>
          </mxGeometry>
        </mxCell>
        <mxCell id="Xn5FnCG-qSh6JUQlaOpy-205" value="&amp;nbsp;S * 32&amp;nbsp;" style="edgeLabel;html=1;align=center;verticalAlign=middle;resizable=0;points=[];" parent="Xn5FnCG-qSh6JUQlaOpy-204" vertex="1" connectable="0">
          <mxGeometry x="-0.6603" y="1" relative="1" as="geometry">
            <mxPoint y="1" as="offset" />
          </mxGeometry>
        </mxCell>
        <mxCell id="Xn5FnCG-qSh6JUQlaOpy-206" value="" style="endArrow=none;dashed=1;html=1;dashPattern=1 3;strokeWidth=2;rounded=0;" parent="1" edge="1">
          <mxGeometry width="50" height="50" relative="1" as="geometry">
            <mxPoint x="760.3399999999999" y="910" as="sourcePoint" />
            <mxPoint x="760.3399999999999" y="890" as="targetPoint" />
          </mxGeometry>
        </mxCell>
        <mxCell id="Xn5FnCG-qSh6JUQlaOpy-207" value="" style="rounded=0;whiteSpace=wrap;html=1;fillColor=#d5e8d4;strokeColor=#82b366;" parent="1" vertex="1">
          <mxGeometry x="460" y="740" width="120" height="140" as="geometry" />
        </mxCell>
        <mxCell id="Xn5FnCG-qSh6JUQlaOpy-208" value="o_w_ena" style="rounded=0;whiteSpace=wrap;html=1;" parent="1" vertex="1">
          <mxGeometry x="530" y="760" width="60" height="20" as="geometry" />
        </mxCell>
        <mxCell id="Xn5FnCG-qSh6JUQlaOpy-209" value="o_w_data" style="rounded=0;whiteSpace=wrap;html=1;" parent="1" vertex="1">
          <mxGeometry x="530" y="800" width="60" height="20" as="geometry" />
        </mxCell>
        <mxCell id="Xn5FnCG-qSh6JUQlaOpy-212" value="i_pop_data" style="rounded=0;whiteSpace=wrap;html=1;" parent="1" vertex="1">
          <mxGeometry x="450" y="840" width="70" height="20" as="geometry" />
        </mxCell>
        <mxCell id="Xn5FnCG-qSh6JUQlaOpy-213" value="" style="shape=link;html=1;rounded=0;" parent="1" edge="1">
          <mxGeometry width="100" relative="1" as="geometry">
            <mxPoint x="380" y="850" as="sourcePoint" />
            <mxPoint x="450" y="849.71" as="targetPoint" />
          </mxGeometry>
        </mxCell>
        <mxCell id="Xn5FnCG-qSh6JUQlaOpy-214" value="&amp;nbsp;S *32&amp;nbsp;" style="edgeLabel;html=1;align=center;verticalAlign=middle;resizable=0;points=[];" parent="Xn5FnCG-qSh6JUQlaOpy-213" vertex="1" connectable="0">
          <mxGeometry x="0.1425" y="-3" relative="1" as="geometry">
            <mxPoint y="-3" as="offset" />
          </mxGeometry>
        </mxCell>
        <mxCell id="Xn5FnCG-qSh6JUQlaOpy-217" value="i_command" style="rounded=0;whiteSpace=wrap;html=1;" parent="1" vertex="1">
          <mxGeometry x="450" y="760" width="70" height="20" as="geometry" />
        </mxCell>
        <mxCell id="Xn5FnCG-qSh6JUQlaOpy-218" value="" style="shape=link;html=1;rounded=0;" parent="1" edge="1">
          <mxGeometry width="100" relative="1" as="geometry">
            <mxPoint x="680" y="780" as="sourcePoint" />
            <mxPoint x="680" y="840" as="targetPoint" />
          </mxGeometry>
        </mxCell>
        <mxCell id="Xn5FnCG-qSh6JUQlaOpy-219" value="" style="shape=link;html=1;rounded=0;" parent="1" edge="1">
          <mxGeometry width="100" relative="1" as="geometry">
            <mxPoint x="700" y="750" as="sourcePoint" />
            <mxPoint x="700" y="780" as="targetPoint" />
          </mxGeometry>
        </mxCell>
        <mxCell id="Xn5FnCG-qSh6JUQlaOpy-222" value="" style="endArrow=none;html=1;rounded=0;entryX=0;entryY=0.5;entryDx=0;entryDy=0;" parent="1" edge="1">
          <mxGeometry width="50" height="50" relative="1" as="geometry">
            <mxPoint x="380" y="769.76" as="sourcePoint" />
            <mxPoint x="450" y="769.76" as="targetPoint" />
          </mxGeometry>
        </mxCell>
        <mxCell id="Xn5FnCG-qSh6JUQlaOpy-223" value="&amp;nbsp;2&amp;nbsp;" style="edgeLabel;html=1;align=center;verticalAlign=middle;resizable=0;points=[];" parent="Xn5FnCG-qSh6JUQlaOpy-222" vertex="1" connectable="0">
          <mxGeometry x="0.2136" relative="1" as="geometry">
            <mxPoint as="offset" />
          </mxGeometry>
        </mxCell>
        <mxCell id="Xn5FnCG-qSh6JUQlaOpy-224" value="i_push_data" style="rounded=0;whiteSpace=wrap;html=1;" parent="1" vertex="1">
          <mxGeometry x="450" y="800" width="70" height="20" as="geometry" />
        </mxCell>
        <mxCell id="Xn5FnCG-qSh6JUQlaOpy-225" value="" style="shape=link;html=1;rounded=0;" parent="1" edge="1">
          <mxGeometry width="100" relative="1" as="geometry">
            <mxPoint x="380" y="810" as="sourcePoint" />
            <mxPoint x="450" y="809.71" as="targetPoint" />
          </mxGeometry>
        </mxCell>
        <mxCell id="Xn5FnCG-qSh6JUQlaOpy-226" value="&amp;nbsp;S *32&amp;nbsp;" style="edgeLabel;html=1;align=center;verticalAlign=middle;resizable=0;points=[];" parent="Xn5FnCG-qSh6JUQlaOpy-225" vertex="1" connectable="0">
          <mxGeometry x="0.1425" y="-3" relative="1" as="geometry">
            <mxPoint y="-3" as="offset" />
          </mxGeometry>
        </mxCell>
      </root>
    </mxGraphModel>
  </diagram>
</mxfile>
